static_grf.mot
version=1
nRows=25
nColumns 19
inDegrees=yes
endheader
time	1_ground_force_vx	1_ground_force_vy	1_ground_force_vz	1_ground_force_px	1_ground_force_py	1_ground_force_pz	1_ground_torque_x	1_ground_torque_y	1_ground_torque_z	2_ground_force_vx	2_ground_force_vy	2_ground_force_vz	2_ground_force_px	2_ground_force_py	2_ground_force_pz	2_ground_torque_x	2_ground_torque_y	2_ground_torque_z
            0.005000	           -0.337871	          307.804126	          -19.819560	           -0.272883	            0.006134	           -0.386302	           -0.002325	            2.118322	           -0.136399	           -0.878335	          310.767566	           22.320519	           -0.269448	            0.005535	           -0.704329	            0.005200	           -1.839679	           -0.132133
            0.005500	           -0.796887	          308.525887	          -19.998754	           -0.273058	            0.006135	           -0.386455	           -0.005201	            2.013480	           -0.130514	           -0.830156	          310.399454	           22.319185	           -0.269308	            0.005532	           -0.703571	            0.004929	           -1.842997	           -0.132520
            0.006000	           -0.429167	          308.163854	          -19.634363	           -0.272748	            0.006135	           -0.386551	           -0.002855	            2.049863	           -0.130605	           -1.014253	          309.478180	           22.269051	           -0.269411	            0.005533	           -0.703727	            0.006147	           -1.875743	           -0.134972
            0.006500	           -0.475726	          308.345260	          -19.908611	           -0.272786	            0.006135	           -0.386574	           -0.003171	            2.055458	           -0.132713	           -0.970041	          310.214806	           22.318587	           -0.269392	            0.005533	           -0.703915	            0.005741	           -1.835900	           -0.132085
            0.007000	           -0.291785	          308.344312	          -19.679787	           -0.272630	            0.006134	           -0.386357	           -0.002000	            2.113565	           -0.134896	           -0.782682	          310.215817	           22.224652	           -0.269217	            0.005534	           -0.703798	            0.004580	           -1.815250	           -0.130049
            0.007500	           -0.291491	          307.983387	          -19.589621	           -0.272682	            0.006135	           -0.386498	           -0.001980	            2.092533	           -0.133098	           -0.875594	          310.030334	           22.505603	           -0.269235	            0.005534	           -0.703961	            0.005096	           -1.804397	           -0.130984
            0.008000	           -0.475351	          308.164435	          -19.771817	           -0.272995	            0.006135	           -0.386510	           -0.003169	            2.054465	           -0.131814	           -0.972055	          310.767395	           22.273630	           -0.269027	            0.005535	           -0.704085	            0.005713	           -1.826401	           -0.130904
            0.008500	           -0.521162	          307.984130	          -19.772476	           -0.273023	            0.006135	           -0.386466	           -0.003483	            2.058296	           -0.132142	           -0.593871	          309.847482	           22.410970	           -0.269372	            0.005532	           -0.703526	            0.003528	           -1.840526	           -0.133123
            0.009000	           -0.475172	          307.803707	          -19.727507	           -0.272861	            0.006135	           -0.386597	           -0.003150	            2.040562	           -0.130782	           -1.018926	          310.767393	           22.226722	           -0.269290	            0.005535	           -0.704205	            0.005702	           -1.739085	           -0.124383
            0.009500	           -0.337367	          308.163675	          -19.588734	           -0.272918	            0.006134	           -0.386360	           -0.002249	            2.054485	           -0.130595	           -0.970746	          310.399281	           22.225388	           -0.269198	            0.005533	           -0.703690	            0.005629	           -1.799996	           -0.128884
            0.010000	           -0.429883	          308.345268	          -19.908725	           -0.272710	            0.006134	           -0.386208	           -0.002911	            2.087766	           -0.134799	           -0.826874	          309.479024	           22.222043	           -0.269294	            0.005533	           -0.703609	            0.004965	           -1.858109	           -0.133421
            0.010500	           -0.429589	          307.984344	          -19.818559	           -0.273063	            0.006135	           -0.386531	           -0.002917	            2.091494	           -0.134586	           -0.874950	          309.846299	           22.458018	           -0.269377	            0.005532	           -0.703641	            0.005126	           -1.815216	           -0.131569
            0.011000	           -0.062684	          308.344553	          -19.726212	           -0.272723	            0.006134	           -0.386175	           -0.000425	            2.091990	           -0.133834	           -0.690956	          310.768410	           22.273511	           -0.269144	            0.005535	           -0.704030	            0.004105	           -1.846415	           -0.132337
            0.011500	           -0.429362	          307.983951	          -19.726847	           -0.272883	            0.006135	           -0.386519	           -0.002905	            2.084076	           -0.133488	           -0.691641	          310.952718	           22.227240	           -0.269381	            0.005534	           -0.704107	            0.003946	           -1.774064	           -0.126812
            0.012000	           -0.337562	          307.983772	          -19.681219	           -0.272995	            0.006135	           -0.386510	           -0.002278	            2.078185	           -0.132803	           -0.920594	          309.478853	           22.175155	           -0.269430	            0.005533	           -0.703911	            0.005354	           -1.799734	           -0.128957
            0.012500	           -0.108281	          307.623285	          -19.683334	           -0.272946	            0.006135	           -0.386477	           -0.000735	            2.088821	           -0.133654	           -0.831403	          310.767066	           22.508211	           -0.269081	            0.005535	           -0.703967	            0.004911	           -1.835523	           -0.132943
            0.013000	           -0.383665	          308.164452	          -19.772044	           -0.272973	            0.006135	           -0.386386	           -0.002607	            2.093850	           -0.134343	           -0.876964	          310.398950	           22.413061	           -0.269307	            0.005534	           -0.703933	            0.005199	           -1.840268	           -0.132881
            0.013500	           -0.062049	          307.983038	          -19.498478	           -0.273199	            0.006133	           -0.386113	           -0.000424	            2.102109	           -0.133085	           -0.640742	          309.847480	           22.364062	           -0.269432	            0.005533	           -0.703888	            0.003831	           -1.852675	           -0.133722
            0.014000	           -0.474668	          308.163255	          -19.496681	           -0.272938	            0.006135	           -0.386411	           -0.003174	            2.060905	           -0.130388	           -0.688195	          310.031010	           22.505523	           -0.268982	            0.005535	           -0.703844	            0.004110	           -1.851672	           -0.134415
            0.014500	           -0.291803	          309.065178	          -19.630839	           -0.272781	            0.006133	           -0.386104	           -0.002006	            2.124229	           -0.134924	           -0.644106	          310.768579	           22.273491	           -0.269388	            0.005534	           -0.703971	            0.003811	           -1.838782	           -0.131790
            0.015000	           -0.245972	          307.263120	          -19.776250	           -0.273065	            0.006137	           -0.386952	           -0.001692	            2.113782	           -0.136048	           -0.641468	          310.032184	           22.223935	           -0.269176	            0.005534	           -0.704026	            0.003772	           -1.823081	           -0.130683
            0.015500	           -0.337301	          307.803143	          -19.590280	           -0.273086	            0.006135	           -0.386513	           -0.002255	            2.057948	           -0.130979	           -0.549803	          310.585279	           22.132010	           -0.269093	            0.005535	           -0.704077	            0.003390	           -1.915040	           -0.136464
            0.016000	           -0.200033	          307.983798	          -19.681560	           -0.272492	            0.006135	           -0.386448	           -0.001337	            2.057984	           -0.131515	           -0.688256	          310.031512	           22.364739	           -0.269226	            0.005535	           -0.704146	            0.004131	           -1.861010	           -0.134248
            0.016500	           -0.246185	          307.804144	          -19.819787	           -0.272933	            0.006134	           -0.386300	           -0.001690	            2.112925	           -0.136053	           -0.833499	          311.320325	           22.275542	           -0.269335	            0.005534	           -0.704137	            0.004779	           -1.784955	           -0.127717
            0.017000	           -0.429134	          307.983557	          -19.635136	           -0.273190	            0.006135	           -0.386567	           -0.002908	            2.086861	           -0.133045	           -0.970726	          310.399114	           22.272316	           -0.269318	            0.005534	           -0.703992	            0.005642	           -1.804217	           -0.129459
